<?xml version="1.0"?>
<!-- Generated by SVGo -->
<svg width="315.752mm" height="125.252mm"
     viewBox="0.000 0.000 315.752 125.252"
     xmlns="http://www.w3.org/2000/svg" 
     xmlns:xlink="http://www.w3.org/1999/xlink">
<polygon points="307.752,5.001 307.987,5.010 308.221,5.037 308.452,5.083 308.679,5.147 308.900,5.229 309.113,5.327 309.319,5.443 309.515,5.573 309.700,5.719 309.873,5.879 310.033,6.052 310.179,6.237 310.309,6.433 310.425,6.639 310.523,6.852 310.605,7.073 310.669,7.300 310.715,7.531 310.742,7.765 310.752,8.001 310.752,117.251 310.742,117.487 310.715,117.721 310.669,117.952 310.605,118.179 310.523,118.400 310.425,118.613 310.309,118.819 310.179,119.015 310.033,119.200 309.873,119.373 309.700,119.533 309.515,119.679 309.319,119.809 309.113,119.925 308.900,120.023 308.679,120.105 308.452,120.169 308.221,120.215 307.987,120.242 307.752,120.252 8.001,120.251 7.765,120.242 7.531,120.215 7.300,120.169 7.073,120.105 6.852,120.023 6.639,119.925 6.433,119.809 6.237,119.679 6.052,119.533 5.879,119.373 5.719,119.200 5.573,119.015 5.443,118.819 5.327,118.613 5.229,118.400 5.147,118.179 5.083,117.952 5.037,117.721 5.010,117.487 5.000,117.251 5.001,8.001 5.010,7.765 5.037,7.531 5.083,7.300 5.147,7.073 5.229,6.852 5.327,6.639 5.443,6.433 5.573,6.237 5.719,6.052 5.879,5.879 6.052,5.719 6.237,5.573 6.433,5.443 6.639,5.327 6.852,5.229 7.073,5.147 7.300,5.083 7.531,5.037 7.765,5.010 8.001,5.000" style="fill:none;stroke-width:0.050000mm;stroke:black"/>
<polygon points="305.211,113.587 304.723,113.836 304.336,114.223 304.087,114.711 304.002,115.251 304.087,115.792 304.336,116.280 304.723,116.667 305.211,116.916 305.752,117.001 306.292,116.916 306.780,116.667 307.167,116.280 307.416,115.792 307.502,115.251 307.416,114.711 307.167,114.223 306.780,113.836 306.292,113.587 305.752,113.501" style="fill:none;stroke-width:0.050000mm;stroke:black"/>
<polygon points="246.061,113.587 245.573,113.836 245.186,114.223 244.937,114.711 244.851,115.251 244.937,115.792 245.186,116.280 245.573,116.667 246.061,116.916 246.601,117.001 247.142,116.916 247.630,116.667 248.017,116.280 248.266,115.792 248.351,115.251 248.266,114.711 248.017,114.223 247.630,113.836 247.142,113.587 246.601,113.501" style="fill:none;stroke-width:0.050000mm;stroke:black"/>
<polygon points="186.910,113.587 186.422,113.836 186.035,114.223 185.787,114.711 185.701,115.251 185.787,115.792 186.035,116.280 186.422,116.667 186.910,116.916 187.451,117.001 187.992,116.916 188.480,116.667 188.867,116.280 189.115,115.792 189.201,115.251 189.115,114.711 188.867,114.223 188.480,113.836 187.992,113.587 187.451,113.501" style="fill:none;stroke-width:0.050000mm;stroke:black"/>
<polygon points="127.760,113.587 127.272,113.836 126.885,114.223 126.637,114.711 126.551,115.251 126.637,115.792 126.885,116.280 127.272,116.667 127.760,116.916 128.301,117.001 128.842,116.916 129.330,116.667 129.717,116.280 129.965,115.792 130.051,115.251 129.965,114.711 129.717,114.223 129.330,113.836 128.842,113.587 128.301,113.501" style="fill:none;stroke-width:0.050000mm;stroke:black"/>
<polygon points="68.610,113.587 68.122,113.836 67.735,114.223 67.486,114.711 67.401,115.251 67.486,115.792 67.735,116.280 68.122,116.667 68.610,116.916 69.151,117.001 69.691,116.916 70.179,116.667 70.566,116.280 70.815,115.792 70.901,115.251 70.815,114.711 70.566,114.223 70.179,113.836 69.691,113.587 69.151,113.501" style="fill:none;stroke-width:0.050000mm;stroke:black"/>
<polygon points="9.460,113.587 8.972,113.836 8.585,114.223 8.336,114.711 8.251,115.251 8.336,115.792 8.585,116.280 8.972,116.667 9.460,116.916 10.001,117.001 10.541,116.916 11.029,116.667 11.416,116.280 11.665,115.792 11.751,115.251 11.665,114.711 11.416,114.223 11.029,113.836 10.541,113.587 10.001,113.501" style="fill:none;stroke-width:0.050000mm;stroke:black"/>
<polygon points="46.101,93.726 46.101,107.726 60.101,107.726 60.101,93.726" style="fill:none;stroke-width:0.050000mm;stroke:black"/>
<polygon points="69.913,93.726 69.913,107.726 83.913,107.726 83.913,93.726" style="fill:none;stroke-width:0.050000mm;stroke:black"/>
<polygon points="100.869,93.726 100.869,107.726 114.869,107.726 114.869,93.726" style="fill:none;stroke-width:0.050000mm;stroke:black"/>
<polygon points="129.444,93.726 129.444,107.726 143.444,107.726 143.444,93.726" style="fill:none;stroke-width:0.050000mm;stroke:black"/>
<polygon points="150.876,93.726 150.876,107.726 164.876,107.726 164.876,93.726" style="fill:none;stroke-width:0.050000mm;stroke:black"/>
<polygon points="172.307,93.726 172.307,107.726 186.307,107.726 186.307,93.726" style="fill:none;stroke-width:0.050000mm;stroke:black"/>
<polygon points="200.882,93.726 200.882,107.726 214.882,107.726 214.882,93.726" style="fill:none;stroke-width:0.050000mm;stroke:black"/>
<polygon points="231.838,93.726 231.838,107.726 245.838,107.726 245.838,93.726" style="fill:none;stroke-width:0.050000mm;stroke:black"/>
<polygon points="255.650,93.726 255.650,107.726 269.651,107.726 269.651,93.726" style="fill:none;stroke-width:0.050000mm;stroke:black"/>
<polygon points="17.526,74.676 17.526,88.676 31.526,88.676 31.526,74.676" style="fill:none;stroke-width:0.050000mm;stroke:black"/>
<polygon points="38.957,74.676 38.957,88.676 52.957,88.676 52.957,74.676" style="fill:none;stroke-width:0.050000mm;stroke:black"/>
<polygon points="60.388,74.676 60.388,88.676 74.388,88.676 74.388,74.676" style="fill:none;stroke-width:0.050000mm;stroke:black"/>
<polygon points="79.438,74.676 79.438,88.676 93.438,88.676 93.438,74.676" style="fill:none;stroke-width:0.050000mm;stroke:black"/>
<polygon points="98.488,74.676 98.488,88.676 112.488,88.676 112.488,74.676" style="fill:none;stroke-width:0.050000mm;stroke:black"/>
<polygon points="117.538,74.676 117.538,88.676 131.538,88.676 131.538,74.676" style="fill:none;stroke-width:0.050000mm;stroke:black"/>
<polygon points="136.588,74.676 136.588,88.676 150.588,88.676 150.588,74.676" style="fill:none;stroke-width:0.050000mm;stroke:black"/>
<polygon points="155.638,74.676 155.638,88.676 169.638,88.676 169.638,74.676" style="fill:none;stroke-width:0.050000mm;stroke:black"/>
<polygon points="174.688,74.676 174.688,88.676 188.688,88.676 188.688,74.676" style="fill:none;stroke-width:0.050000mm;stroke:black"/>
<polygon points="193.738,74.676 193.738,88.676 207.738,88.676 207.738,74.676" style="fill:none;stroke-width:0.050000mm;stroke:black"/>
<polygon points="212.788,74.676 212.788,88.676 226.788,88.676 226.788,74.676" style="fill:none;stroke-width:0.050000mm;stroke:black"/>
<polygon points="231.838,74.676 231.838,88.676 245.838,88.676 245.838,74.676" style="fill:none;stroke-width:0.050000mm;stroke:black"/>
<polygon points="258.032,74.676 258.032,88.676 272.032,88.676 272.032,74.676" style="fill:none;stroke-width:0.050000mm;stroke:black"/>
<polygon points="284.226,74.676 284.226,88.676 298.226,88.676 298.226,74.676" style="fill:none;stroke-width:0.050000mm;stroke:black"/>
<polygon points="24.669,55.626 24.669,69.626 38.669,69.626 38.669,55.626" style="fill:none;stroke-width:0.050000mm;stroke:black"/>
<polygon points="50.863,55.626 50.863,69.626 64.862,69.626 64.862,55.626" style="fill:none;stroke-width:0.050000mm;stroke:black"/>
<polygon points="69.913,55.626 69.913,69.626 83.913,69.626 83.913,55.626" style="fill:none;stroke-width:0.050000mm;stroke:black"/>
<polygon points="88.963,55.626 88.963,69.626 102.963,69.626 102.963,55.626" style="fill:none;stroke-width:0.050000mm;stroke:black"/>
<polygon points="108.013,55.626 108.013,69.626 122.013,69.626 122.013,55.626" style="fill:none;stroke-width:0.050000mm;stroke:black"/>
<polygon points="127.063,55.626 127.063,69.626 141.063,69.626 141.063,55.626" style="fill:none;stroke-width:0.050000mm;stroke:black"/>
<polygon points="146.113,55.626 146.113,69.626 160.113,69.626 160.113,55.626" style="fill:none;stroke-width:0.050000mm;stroke:black"/>
<polygon points="165.163,55.626 165.163,69.626 179.163,69.626 179.163,55.626" style="fill:none;stroke-width:0.050000mm;stroke:black"/>
<polygon points="184.213,55.626 184.213,69.626 198.213,69.626 198.213,55.626" style="fill:none;stroke-width:0.050000mm;stroke:black"/>
<polygon points="203.263,55.626 203.263,69.626 217.263,69.626 217.263,55.626" style="fill:none;stroke-width:0.050000mm;stroke:black"/>
<polygon points="222.313,55.626 222.313,69.626 236.313,69.626 236.313,55.626" style="fill:none;stroke-width:0.050000mm;stroke:black"/>
<polygon points="241.363,55.626 241.363,69.626 255.363,69.626 255.363,55.626" style="fill:none;stroke-width:0.050000mm;stroke:black"/>
<polygon points="260.412,55.626 260.412,69.626 274.413,69.626 274.413,55.626" style="fill:none;stroke-width:0.050000mm;stroke:black"/>
<polygon points="281.844,55.626 281.844,69.626 295.844,69.626 295.844,55.626" style="fill:none;stroke-width:0.050000mm;stroke:black"/>
<polygon points="305.211,60.962 304.723,61.210 304.336,61.597 304.087,62.085 304.002,62.626 304.087,63.167 304.336,63.655 304.723,64.042 305.211,64.290 305.752,64.376 306.292,64.290 306.780,64.042 307.167,63.655 307.416,63.167 307.502,62.626 307.416,62.085 307.167,61.597 306.780,61.210 306.292,60.962 305.752,60.876" style="fill:none;stroke-width:0.050000mm;stroke:black"/>
<polygon points="9.460,60.962 8.972,61.210 8.585,61.597 8.336,62.085 8.251,62.626 8.336,63.167 8.585,63.655 8.972,64.042 9.460,64.290 10.001,64.376 10.541,64.290 11.029,64.042 11.416,63.655 11.665,63.167 11.751,62.626 11.665,62.085 11.416,61.597 11.029,61.210 10.541,60.962 10.001,60.876" style="fill:none;stroke-width:0.050000mm;stroke:black"/>
<polygon points="22.288,36.576 22.288,50.576 36.288,50.576 36.288,36.576" style="fill:none;stroke-width:0.050000mm;stroke:black"/>
<polygon points="46.101,36.576 46.101,50.576 60.101,50.576 60.101,36.576" style="fill:none;stroke-width:0.050000mm;stroke:black"/>
<polygon points="65.151,36.576 65.151,50.576 79.151,50.576 79.151,36.576" style="fill:none;stroke-width:0.050000mm;stroke:black"/>
<polygon points="84.201,36.576 84.201,50.576 98.201,50.576 98.201,36.576" style="fill:none;stroke-width:0.050000mm;stroke:black"/>
<polygon points="103.251,36.576 103.251,50.576 117.251,50.576 117.251,36.576" style="fill:none;stroke-width:0.050000mm;stroke:black"/>
<polygon points="122.301,36.576 122.301,50.576 136.301,50.576 136.301,36.576" style="fill:none;stroke-width:0.050000mm;stroke:black"/>
<polygon points="141.351,36.576 141.351,50.576 155.351,50.576 155.351,36.576" style="fill:none;stroke-width:0.050000mm;stroke:black"/>
<polygon points="160.401,36.576 160.401,50.576 174.401,50.576 174.401,36.576" style="fill:none;stroke-width:0.050000mm;stroke:black"/>
<polygon points="179.451,36.576 179.451,50.576 193.451,50.576 193.451,36.576" style="fill:none;stroke-width:0.050000mm;stroke:black"/>
<polygon points="198.501,36.576 198.501,50.576 212.501,50.576 212.501,36.576" style="fill:none;stroke-width:0.050000mm;stroke:black"/>
<polygon points="217.551,36.576 217.551,50.576 231.551,50.576 231.551,36.576" style="fill:none;stroke-width:0.050000mm;stroke:black"/>
<polygon points="236.601,36.576 236.601,50.576 250.601,50.576 250.601,36.576" style="fill:none;stroke-width:0.050000mm;stroke:black"/>
<polygon points="255.651,36.576 255.651,50.576 269.651,50.576 269.651,36.576" style="fill:none;stroke-width:0.050000mm;stroke:black"/>
<polygon points="279.463,36.576 279.463,50.576 293.463,50.576 293.463,36.576" style="fill:none;stroke-width:0.050000mm;stroke:black"/>
<polygon points="17.526,17.526 17.526,31.526 31.526,31.526 31.526,17.526" style="fill:none;stroke-width:0.050000mm;stroke:black"/>
<polygon points="36.576,17.526 36.576,31.526 50.576,31.526 50.576,17.526" style="fill:none;stroke-width:0.050000mm;stroke:black"/>
<polygon points="55.626,17.526 55.626,31.526 69.626,31.526 69.626,17.526" style="fill:none;stroke-width:0.050000mm;stroke:black"/>
<polygon points="74.676,17.526 74.676,31.526 88.676,31.526 88.676,17.526" style="fill:none;stroke-width:0.050000mm;stroke:black"/>
<polygon points="93.726,17.526 93.726,31.526 107.726,31.526 107.726,17.526" style="fill:none;stroke-width:0.050000mm;stroke:black"/>
<polygon points="112.775,17.526 112.775,31.526 126.775,31.526 126.775,17.526" style="fill:none;stroke-width:0.050000mm;stroke:black"/>
<polygon points="131.826,17.526 131.826,31.526 145.826,31.526 145.826,17.526" style="fill:none;stroke-width:0.050000mm;stroke:black"/>
<polygon points="150.876,17.526 150.876,31.526 164.876,31.526 164.876,17.526" style="fill:none;stroke-width:0.050000mm;stroke:black"/>
<polygon points="169.926,17.526 169.926,31.526 183.926,31.526 183.926,17.526" style="fill:none;stroke-width:0.050000mm;stroke:black"/>
<polygon points="188.976,17.526 188.976,31.526 202.976,31.526 202.976,17.526" style="fill:none;stroke-width:0.050000mm;stroke:black"/>
<polygon points="208.026,17.526 208.026,31.526 222.026,31.526 222.026,17.526" style="fill:none;stroke-width:0.050000mm;stroke:black"/>
<polygon points="227.076,17.526 227.076,31.526 241.076,31.526 241.076,17.526" style="fill:none;stroke-width:0.050000mm;stroke:black"/>
<polygon points="246.126,17.526 246.126,31.526 260.126,31.526 260.126,17.526" style="fill:none;stroke-width:0.050000mm;stroke:black"/>
<polygon points="265.176,17.526 265.176,31.526 279.176,31.526 279.176,17.526" style="fill:none;stroke-width:0.050000mm;stroke:black"/>
<polygon points="284.226,17.526 284.226,31.526 298.226,31.526 298.226,17.526" style="fill:none;stroke-width:0.050000mm;stroke:black"/>
<polygon points="68.610,8.336 68.122,8.585 67.735,8.972 67.486,9.460 67.401,10.001 67.486,10.541 67.735,11.029 68.122,11.416 68.610,11.665 69.151,11.751 69.691,11.665 70.179,11.416 70.566,11.029 70.815,10.541 70.901,10.001 70.815,9.460 70.566,8.972 70.179,8.585 69.691,8.336 69.151,8.251" style="fill:none;stroke-width:0.050000mm;stroke:black"/>
<polygon points="127.760,8.336 127.272,8.585 126.885,8.972 126.637,9.460 126.551,10.001 126.637,10.541 126.885,11.029 127.272,11.416 127.760,11.665 128.301,11.751 128.842,11.665 129.330,11.416 129.717,11.029 129.965,10.541 130.051,10.001 129.965,9.460 129.717,8.972 129.330,8.585 128.842,8.336 128.301,8.251" style="fill:none;stroke-width:0.050000mm;stroke:black"/>
<polygon points="186.910,8.336 186.422,8.585 186.035,8.972 185.787,9.460 185.701,10.001 185.787,10.541 186.035,11.029 186.422,11.416 186.910,11.665 187.451,11.751 187.992,11.665 188.480,11.416 188.867,11.029 189.115,10.541 189.201,10.001 189.115,9.460 188.867,8.972 188.480,8.585 187.992,8.336 187.451,8.251" style="fill:none;stroke-width:0.050000mm;stroke:black"/>
<polygon points="246.061,8.336 245.573,8.585 245.186,8.972 244.937,9.460 244.851,10.001 244.937,10.541 245.186,11.029 245.573,11.416 246.061,11.665 246.601,11.751 247.142,11.665 247.630,11.416 248.017,11.029 248.266,10.541 248.351,10.001 248.266,9.460 248.017,8.972 247.630,8.585 247.142,8.336 246.601,8.251" style="fill:none;stroke-width:0.050000mm;stroke:black"/>
<polygon points="305.211,8.336 304.723,8.585 304.336,8.972 304.087,9.460 304.002,10.001 304.087,10.541 304.336,11.029 304.723,11.416 305.211,11.665 305.752,11.751 306.292,11.665 306.780,11.416 307.167,11.029 307.416,10.541 307.502,10.001 307.416,9.460 307.167,8.972 306.780,8.585 306.292,8.336 305.752,8.251" style="fill:none;stroke-width:0.050000mm;stroke:black"/>
<polygon points="9.460,8.336 8.972,8.585 8.585,8.972 8.336,9.460 8.251,10.001 8.336,10.541 8.585,11.029 8.972,11.416 9.460,11.665 10.001,11.751 10.541,11.665 11.029,11.416 11.416,11.029 11.665,10.541 11.751,10.001 11.665,9.460 11.416,8.972 11.029,8.585 10.541,8.336 10.001,8.251" style="fill:none;stroke-width:0.050000mm;stroke:black"/>
</svg>
