<?xml version="1.0"?>
<!-- Generated by SVGo -->
<svg width="315.752mm" height="125.252mm"
     viewBox="0.000 0.000 315.752 125.252"
     xmlns="http://www.w3.org/2000/svg" 
     xmlns:xlink="http://www.w3.org/1999/xlink">
<polygon points="307.752,5.001 307.987,5.010 308.221,5.037 308.452,5.083 308.679,5.147 308.900,5.229 309.113,5.327 309.319,5.443 309.515,5.573 309.700,5.719 309.873,5.879 310.033,6.052 310.179,6.237 310.309,6.433 310.425,6.639 310.523,6.852 310.605,7.073 310.669,7.300 310.715,7.531 310.742,7.765 310.752,8.001 310.752,117.251 310.742,117.487 310.715,117.721 310.669,117.952 310.605,118.179 310.523,118.400 310.425,118.613 310.309,118.819 310.179,119.015 310.033,119.200 309.873,119.373 309.700,119.533 309.515,119.679 309.319,119.809 309.113,119.925 308.900,120.023 308.679,120.105 308.452,120.169 308.221,120.215 307.987,120.242 307.752,120.252 8.001,120.251 7.765,120.242 7.531,120.215 7.300,120.169 7.073,120.105 6.852,120.023 6.639,119.925 6.433,119.809 6.237,119.679 6.052,119.533 5.879,119.373 5.719,119.200 5.573,119.015 5.443,118.819 5.327,118.613 5.229,118.400 5.147,118.179 5.083,117.952 5.037,117.721 5.010,117.487 5.000,117.251 5.001,8.001 5.010,7.765 5.037,7.531 5.083,7.300 5.147,7.073 5.229,6.852 5.327,6.639 5.443,6.433 5.573,6.237 5.719,6.052 5.879,5.879 6.052,5.719 6.237,5.573 6.433,5.443 6.639,5.327 6.852,5.229 7.073,5.147 7.300,5.083 7.531,5.037 7.765,5.010 8.001,5.000" style="fill:none;stroke-width:0.050000mm;stroke:black"/>
<polygon points="305.211,113.587 304.723,113.836 304.336,114.223 304.087,114.711 304.002,115.251 304.087,115.792 304.336,116.280 304.723,116.667 305.211,116.916 305.752,117.001 306.292,116.916 306.780,116.667 307.167,116.280 307.416,115.792 307.502,115.251 307.416,114.711 307.167,114.223 306.780,113.836 306.292,113.587 305.752,113.501" style="fill:none;stroke-width:0.050000mm;stroke:black"/>
<polygon points="246.061,113.587 245.573,113.836 245.186,114.223 244.937,114.711 244.851,115.251 244.937,115.792 245.186,116.280 245.573,116.667 246.061,116.916 246.601,117.001 247.142,116.916 247.630,116.667 248.017,116.280 248.266,115.792 248.351,115.251 248.266,114.711 248.017,114.223 247.630,113.836 247.142,113.587 246.601,113.501" style="fill:none;stroke-width:0.050000mm;stroke:black"/>
<polygon points="186.910,113.587 186.422,113.836 186.035,114.223 185.787,114.711 185.701,115.251 185.787,115.792 186.035,116.280 186.422,116.667 186.910,116.916 187.451,117.001 187.992,116.916 188.480,116.667 188.867,116.280 189.115,115.792 189.201,115.251 189.115,114.711 188.867,114.223 188.480,113.836 187.992,113.587 187.451,113.501" style="fill:none;stroke-width:0.050000mm;stroke:black"/>
<polygon points="127.760,113.587 127.272,113.836 126.885,114.223 126.637,114.711 126.551,115.251 126.637,115.792 126.885,116.280 127.272,116.667 127.760,116.916 128.301,117.001 128.842,116.916 129.330,116.667 129.717,116.280 129.965,115.792 130.051,115.251 129.965,114.711 129.717,114.223 129.330,113.836 128.842,113.587 128.301,113.501" style="fill:none;stroke-width:0.050000mm;stroke:black"/>
<polygon points="68.610,113.587 68.122,113.836 67.735,114.223 67.486,114.711 67.401,115.251 67.486,115.792 67.735,116.280 68.122,116.667 68.610,116.916 69.151,117.001 69.691,116.916 70.179,116.667 70.566,116.280 70.815,115.792 70.901,115.251 70.815,114.711 70.566,114.223 70.179,113.836 69.691,113.587 69.151,113.501" style="fill:none;stroke-width:0.050000mm;stroke:black"/>
<polygon points="9.460,113.587 8.972,113.836 8.585,114.223 8.336,114.711 8.251,115.251 8.336,115.792 8.585,116.280 8.972,116.667 9.460,116.916 10.001,117.001 10.541,116.916 11.029,116.667 11.416,116.280 11.665,115.792 11.751,115.251 11.665,114.711 11.416,114.223 11.029,113.836 10.541,113.587 10.001,113.501" style="fill:none;stroke-width:0.050000mm;stroke:black"/>
<polygon points="305.211,60.962 304.723,61.210 304.336,61.597 304.087,62.085 304.002,62.626 304.087,63.167 304.336,63.655 304.723,64.042 305.211,64.290 305.752,64.376 306.292,64.290 306.780,64.042 307.167,63.655 307.416,63.167 307.502,62.626 307.416,62.085 307.167,61.597 306.780,61.210 306.292,60.962 305.752,60.876" style="fill:none;stroke-width:0.050000mm;stroke:black"/>
<polygon points="9.460,60.962 8.972,61.210 8.585,61.597 8.336,62.085 8.251,62.626 8.336,63.167 8.585,63.655 8.972,64.042 9.460,64.290 10.001,64.376 10.541,64.290 11.029,64.042 11.416,63.655 11.665,63.167 11.751,62.626 11.665,62.085 11.416,61.597 11.029,61.210 10.541,60.962 10.001,60.876" style="fill:none;stroke-width:0.050000mm;stroke:black"/>
<polygon points="68.610,8.336 68.122,8.585 67.735,8.972 67.486,9.460 67.401,10.001 67.486,10.541 67.735,11.029 68.122,11.416 68.610,11.665 69.151,11.751 69.691,11.665 70.179,11.416 70.566,11.029 70.815,10.541 70.901,10.001 70.815,9.460 70.566,8.972 70.179,8.585 69.691,8.336 69.151,8.251" style="fill:none;stroke-width:0.050000mm;stroke:black"/>
<polygon points="127.760,8.336 127.272,8.585 126.885,8.972 126.637,9.460 126.551,10.001 126.637,10.541 126.885,11.029 127.272,11.416 127.760,11.665 128.301,11.751 128.842,11.665 129.330,11.416 129.717,11.029 129.965,10.541 130.051,10.001 129.965,9.460 129.717,8.972 129.330,8.585 128.842,8.336 128.301,8.251" style="fill:none;stroke-width:0.050000mm;stroke:black"/>
<polygon points="186.910,8.336 186.422,8.585 186.035,8.972 185.787,9.460 185.701,10.001 185.787,10.541 186.035,11.029 186.422,11.416 186.910,11.665 187.451,11.751 187.992,11.665 188.480,11.416 188.867,11.029 189.115,10.541 189.201,10.001 189.115,9.460 188.867,8.972 188.480,8.585 187.992,8.336 187.451,8.251" style="fill:none;stroke-width:0.050000mm;stroke:black"/>
<polygon points="246.061,8.336 245.573,8.585 245.186,8.972 244.937,9.460 244.851,10.001 244.937,10.541 245.186,11.029 245.573,11.416 246.061,11.665 246.601,11.751 247.142,11.665 247.630,11.416 248.017,11.029 248.266,10.541 248.351,10.001 248.266,9.460 248.017,8.972 247.630,8.585 247.142,8.336 246.601,8.251" style="fill:none;stroke-width:0.050000mm;stroke:black"/>
<polygon points="305.211,8.336 304.723,8.585 304.336,8.972 304.087,9.460 304.002,10.001 304.087,10.541 304.336,11.029 304.723,11.416 305.211,11.665 305.752,11.751 306.292,11.665 306.780,11.416 307.167,11.029 307.416,10.541 307.502,10.001 307.416,9.460 307.167,8.972 306.780,8.585 306.292,8.336 305.752,8.251" style="fill:none;stroke-width:0.050000mm;stroke:black"/>
<polygon points="9.460,8.336 8.972,8.585 8.585,8.972 8.336,9.460 8.251,10.001 8.336,10.541 8.585,11.029 8.972,11.416 9.460,11.665 10.001,11.751 10.541,11.665 11.029,11.416 11.416,11.029 11.665,10.541 11.751,10.001 11.665,9.460 11.416,8.972 11.029,8.585 10.541,8.336 10.001,8.251" style="fill:none;stroke-width:0.050000mm;stroke:black"/>
</svg>
