  0
SECTION
  2
HEADER
  9
$ACADVER
  1
AC1009
  9
$FILLMODE
 70
 0
  9
$SPLFRAME
 70
 1
  9
$EXTMIN
 10
0
 20
0
 30
0.0
  9
$EXTMAX
 10
1058.33
 20
1058.33
 30
0.0
  0
ENDSEC
  0
SECTION
  2
TABLES
  0
TABLE
  2
LAYER
 70
1
  0
LAYER
  2
0
 70
     0
 62
     7
  6
CONTINUOUS
  0
ENDTAB
  0
ENDSEC
  0
SECTION
  2
ENTITIES
  0
LINE
  8
0
 62
     0
 10
302.846
 20
115.616
 30
0.0
 11
303.082
 21
115.606
 31
0.0
  0
LINE
  8
0
 62
     0
 10
303.082
 20
115.606
 30
0.0
 11
303.316
 21
115.58
 31
0.0
  0
LINE
  8
0
 62
     0
 10
303.316
 20
115.58
 30
0.0
 11
303.546
 21
115.533
 31
0.0
  0
LINE
  8
0
 62
     0
 10
303.546
 20
115.533
 30
0.0
 11
303.773
 21
115.47
 31
0.0
  0
LINE
  8
0
 62
     0
 10
303.773
 20
115.47
 30
0.0
 11
303.994
 21
115.387
 31
0.0
  0
LINE
  8
0
 62
     0
 10
303.994
 20
115.387
 30
0.0
 11
304.207
 21
115.29
 31
0.0
  0
LINE
  8
0
 62
     0
 10
304.207
 20
115.29
 30
0.0
 11
304.414
 21
115.174
 31
0.0
  0
LINE
  8
0
 62
     0
 10
304.414
 20
115.174
 30
0.0
 11
304.61
 21
115.044
 31
0.0
  0
LINE
  8
0
 62
     0
 10
304.61
 20
115.044
 30
0.0
 11
304.794
 21
114.898
 31
0.0
  0
LINE
  8
0
 62
     0
 10
304.794
 20
114.898
 30
0.0
 11
304.968
 21
114.738
 31
0.0
  0
LINE
  8
0
 62
     0
 10
304.968
 20
114.738
 30
0.0
 11
305.128
 21
114.565
 31
0.0
  0
LINE
  8
0
 62
     0
 10
305.128
 20
114.565
 30
0.0
 11
305.274
 21
114.38
 31
0.0
  0
LINE
  8
0
 62
     0
 10
305.274
 20
114.38
 30
0.0
 11
305.404
 21
114.184
 31
0.0
  0
LINE
  8
0
 62
     0
 10
305.404
 20
114.184
 30
0.0
 11
305.519
 21
113.978
 31
0.0
  0
LINE
  8
0
 62
     0
 10
305.519
 20
113.978
 30
0.0
 11
305.617
 21
113.764
 31
0.0
  0
LINE
  8
0
 62
     0
 10
305.617
 20
113.764
 30
0.0
 11
305.7
 21
113.543
 31
0.0
  0
LINE
  8
0
 62
     0
 10
305.7
 20
113.543
 30
0.0
 11
305.763
 21
113.316
 31
0.0
  0
LINE
  8
0
 62
     0
 10
305.763
 20
113.316
 30
0.0
 11
305.81
 21
113.086
 31
0.0
  0
LINE
  8
0
 62
     0
 10
305.81
 20
113.086
 30
0.0
 11
305.836
 21
112.852
 31
0.0
  0
LINE
  8
0
 62
     0
 10
305.836
 20
112.852
 30
0.0
 11
305.846
 21
112.616
 31
0.0
  0
LINE
  8
0
 62
     0
 10
305.846
 20
112.616
 30
0.0
 11
305.846
 21
3.36517
 31
0.0
  0
LINE
  8
0
 62
     0
 10
305.846
 20
3.36517
 30
0.0
 11
305.836
 21
3.12952
 31
0.0
  0
LINE
  8
0
 62
     0
 10
305.836
 20
3.12952
 30
0.0
 11
305.81
 21
2.89526
 31
0.0
  0
LINE
  8
0
 62
     0
 10
305.81
 20
2.89526
 30
0.0
 11
305.763
 21
2.66513
 31
0.0
  0
LINE
  8
0
 62
     0
 10
305.763
 20
2.66513
 30
0.0
 11
305.7
 21
2.43775
 31
0.0
  0
LINE
  8
0
 62
     0
 10
305.7
 20
2.43775
 30
0.0
 11
305.617
 21
2.21726
 31
0.0
  0
LINE
  8
0
 62
     0
 10
305.617
 20
2.21726
 30
0.0
 11
305.519
 21
2.00367
 31
0.0
  0
LINE
  8
0
 62
     0
 10
305.519
 20
2.00367
 30
0.0
 11
305.404
 21
1.79696
 31
0.0
  0
LINE
  8
0
 62
     0
 10
305.404
 20
1.79696
 30
0.0
 11
305.274
 21
1.60128
 31
0.0
  0
LINE
  8
0
 62
     0
 10
305.274
 20
1.60128
 30
0.0
 11
305.128
 21
1.41662
 31
0.0
  0
LINE
  8
0
 62
     0
 10
305.128
 20
1.41662
 30
0.0
 11
304.968
 21
1.24299
 31
0.0
  0
LINE
  8
0
 62
     0
 10
304.968
 20
1.24299
 30
0.0
 11
304.794
 21
1.08314
 31
0.0
  0
LINE
  8
0
 62
     0
 10
304.794
 20
1.08314
 30
0.0
 11
304.61
 21
0.937066
 31
0.0
  0
LINE
  8
0
 62
     0
 10
304.61
 20
0.937066
 30
0.0
 11
304.414
 21
0.80753
 31
0.0
  0
LINE
  8
0
 62
     0
 10
304.414
 20
0.80753
 30
0.0
 11
304.207
 21
0.691776
 31
0.0
  0
LINE
  8
0
 62
     0
 10
304.207
 20
0.691776
 30
0.0
 11
303.994
 21
0.593933
 31
0.0
  0
LINE
  8
0
 62
     0
 10
303.994
 20
0.593933
 30
0.0
 11
303.773
 21
0.511253
 31
0.0
  0
LINE
  8
0
 62
     0
 10
303.773
 20
0.511253
 30
0.0
 11
303.546
 21
0.447862
 31
0.0
  0
LINE
  8
0
 62
     0
 10
303.546
 20
0.447862
 30
0.0
 11
303.316
 21
0.40101
 31
0.0
  0
LINE
  8
0
 62
     0
 10
303.316
 20
0.40101
 30
0.0
 11
303.082
 21
0.374826
 31
0.0
  0
LINE
  8
0
 62
     0
 10
303.082
 20
0.374826
 30
0.0
 11
302.846
 21
0.365181
 31
0.0
  0
LINE
  8
0
 62
     0
 10
302.846
 20
0.365181
 30
0.0
 11
3.09507
 21
0.365181
 31
0.0
  0
LINE
  8
0
 62
     0
 10
3.09507
 20
0.365181
 30
0.0
 11
2.85943
 21
0.374826
 31
0.0
  0
LINE
  8
0
 62
     0
 10
2.85943
 20
0.374826
 30
0.0
 11
2.62516
 21
0.40101
 31
0.0
  0
LINE
  8
0
 62
     0
 10
2.62516
 20
0.40101
 30
0.0
 11
2.39503
 21
0.447862
 31
0.0
  0
LINE
  8
0
 62
     0
 10
2.39503
 20
0.447862
 30
0.0
 11
2.16765
 21
0.511253
 31
0.0
  0
LINE
  8
0
 62
     0
 10
2.16765
 20
0.511253
 30
0.0
 11
1.94717
 21
0.593933
 31
0.0
  0
LINE
  8
0
 62
     0
 10
1.94717
 20
0.593933
 30
0.0
 11
1.73357
 21
0.691776
 31
0.0
  0
LINE
  8
0
 62
     0
 10
1.73357
 20
0.691776
 30
0.0
 11
1.52687
 21
0.80753
 31
0.0
  0
LINE
  8
0
 62
     0
 10
1.52687
 20
0.80753
 30
0.0
 11
1.33119
 21
0.937066
 31
0.0
  0
LINE
  8
0
 62
     0
 10
1.33119
 20
0.937066
 30
0.0
 11
1.14653
 21
1.08314
 31
0.0
  0
LINE
  8
0
 62
     0
 10
1.14653
 20
1.08314
 30
0.0
 11
0.972894
 21
1.24299
 31
0.0
  0
LINE
  8
0
 62
     0
 10
0.972894
 20
1.24299
 30
0.0
 11
0.813043
 21
1.41662
 31
0.0
  0
LINE
  8
0
 62
     0
 10
0.813043
 20
1.41662
 30
0.0
 11
0.666972
 21
1.60128
 31
0.0
  0
LINE
  8
0
 62
     0
 10
0.666972
 20
1.60128
 30
0.0
 11
0.537436
 21
1.79696
 31
0.0
  0
LINE
  8
0
 62
     0
 10
0.537436
 20
1.79696
 30
0.0
 11
0.421679
 21
2.00367
 31
0.0
  0
LINE
  8
0
 62
     0
 10
0.421679
 20
2.00367
 30
0.0
 11
0.323839
 21
2.21726
 31
0.0
  0
LINE
  8
0
 62
     0
 10
0.323839
 20
2.21726
 30
0.0
 11
0.241157
 21
2.43775
 31
0.0
  0
LINE
  8
0
 62
     0
 10
0.241157
 20
2.43775
 30
0.0
 11
0.177767
 21
2.66513
 31
0.0
  0
LINE
  8
0
 62
     0
 10
0.177767
 20
2.66513
 30
0.0
 11
0.130914
 21
2.89526
 31
0.0
  0
LINE
  8
0
 62
     0
 10
0.130914
 20
2.89526
 30
0.0
 11
0.104731
 21
3.12952
 31
0.0
  0
LINE
  8
0
 62
     0
 10
0.104731
 20
3.12952
 30
0.0
 11
0.0950846
 21
3.36517
 31
0.0
  0
LINE
  8
0
 62
     0
 10
0.0950846
 20
3.36517
 30
0.0
 11
0.0950846
 21
112.616
 31
0.0
  0
LINE
  8
0
 62
     0
 10
0.0950846
 20
112.616
 30
0.0
 11
0.104731
 21
112.852
 31
0.0
  0
LINE
  8
0
 62
     0
 10
0.104731
 20
112.852
 30
0.0
 11
0.130914
 21
113.086
 31
0.0
  0
LINE
  8
0
 62
     0
 10
0.130914
 20
113.086
 30
0.0
 11
0.177767
 21
113.316
 31
0.0
  0
LINE
  8
0
 62
     0
 10
0.177767
 20
113.316
 30
0.0
 11
0.241157
 21
113.543
 31
0.0
  0
LINE
  8
0
 62
     0
 10
0.241157
 20
113.543
 30
0.0
 11
0.323839
 21
113.764
 31
0.0
  0
LINE
  8
0
 62
     0
 10
0.323839
 20
113.764
 30
0.0
 11
0.421679
 21
113.978
 31
0.0
  0
LINE
  8
0
 62
     0
 10
0.421679
 20
113.978
 30
0.0
 11
0.537436
 21
114.184
 31
0.0
  0
LINE
  8
0
 62
     0
 10
0.537436
 20
114.184
 30
0.0
 11
0.666972
 21
114.38
 31
0.0
  0
LINE
  8
0
 62
     0
 10
0.666972
 20
114.38
 30
0.0
 11
0.813043
 21
114.565
 31
0.0
  0
LINE
  8
0
 62
     0
 10
0.813043
 20
114.565
 30
0.0
 11
0.972894
 21
114.738
 31
0.0
  0
LINE
  8
0
 62
     0
 10
0.972894
 20
114.738
 30
0.0
 11
1.14653
 21
114.898
 31
0.0
  0
LINE
  8
0
 62
     0
 10
1.14653
 20
114.898
 30
0.0
 11
1.33119
 21
115.044
 31
0.0
  0
LINE
  8
0
 62
     0
 10
1.33119
 20
115.044
 30
0.0
 11
1.52687
 21
115.174
 31
0.0
  0
LINE
  8
0
 62
     0
 10
1.52687
 20
115.174
 30
0.0
 11
1.73357
 21
115.29
 31
0.0
  0
LINE
  8
0
 62
     0
 10
1.73357
 20
115.29
 30
0.0
 11
1.94717
 21
115.387
 31
0.0
  0
LINE
  8
0
 62
     0
 10
1.94717
 20
115.387
 30
0.0
 11
2.16765
 21
115.47
 31
0.0
  0
LINE
  8
0
 62
     0
 10
2.16765
 20
115.47
 30
0.0
 11
2.39503
 21
115.533
 31
0.0
  0
LINE
  8
0
 62
     0
 10
2.39503
 20
115.533
 30
0.0
 11
2.62516
 21
115.58
 31
0.0
  0
LINE
  8
0
 62
     0
 10
2.62516
 20
115.58
 30
0.0
 11
2.85943
 21
115.606
 31
0.0
  0
LINE
  8
0
 62
     0
 10
2.85943
 20
115.606
 30
0.0
 11
3.09507
 21
115.616
 31
0.0
  0
LINE
  8
0
 62
     0
 10
3.09507
 20
115.616
 30
0.0
 11
302.846
 21
115.616
 31
0.0
  0
LINE
  8
0
 62
     0
 10
300.305
 20
7.02938
 30
0.0
 11
299.817
 21
6.77997
 31
0.0
  0
LINE
  8
0
 62
     0
 10
299.817
 20
6.77997
 30
0.0
 11
299.431
 21
6.3941
 31
0.0
  0
LINE
  8
0
 62
     0
 10
299.431
 20
6.3941
 30
0.0
 11
299.182
 21
5.90628
 31
0.0
  0
LINE
  8
0
 62
     0
 10
299.182
 20
5.90628
 30
0.0
 11
299.096
 21
5.36607
 31
0.0
  0
LINE
  8
0
 62
     0
 10
299.096
 20
5.36607
 30
0.0
 11
299.182
 21
4.82452
 31
0.0
  0
LINE
  8
0
 62
     0
 10
299.182
 20
4.82452
 30
0.0
 11
299.431
 21
4.3367
 31
0.0
  0
LINE
  8
0
 62
     0
 10
299.431
 20
4.3367
 30
0.0
 11
299.817
 21
3.94945
 31
0.0
  0
LINE
  8
0
 62
     0
 10
299.817
 20
3.94945
 30
0.0
 11
300.305
 21
3.70004
 31
0.0
  0
LINE
  8
0
 62
     0
 10
300.305
 20
3.70004
 30
0.0
 11
300.846
 21
3.61597
 31
0.0
  0
LINE
  8
0
 62
     0
 10
300.846
 20
3.61597
 30
0.0
 11
301.387
 21
3.70004
 31
0.0
  0
LINE
  8
0
 62
     0
 10
301.387
 20
3.70004
 30
0.0
 11
301.874
 21
3.94945
 31
0.0
  0
LINE
  8
0
 62
     0
 10
301.874
 20
3.94945
 30
0.0
 11
302.262
 21
4.3367
 31
0.0
  0
LINE
  8
0
 62
     0
 10
302.262
 20
4.3367
 30
0.0
 11
302.511
 21
4.82452
 31
0.0
  0
LINE
  8
0
 62
     0
 10
302.511
 20
4.82452
 30
0.0
 11
302.597
 21
5.36607
 31
0.0
  0
LINE
  8
0
 62
     0
 10
302.597
 20
5.36607
 30
0.0
 11
302.511
 21
5.90628
 31
0.0
  0
LINE
  8
0
 62
     0
 10
302.511
 20
5.90628
 30
0.0
 11
302.262
 21
6.3941
 31
0.0
  0
LINE
  8
0
 62
     0
 10
302.262
 20
6.3941
 30
0.0
 11
301.874
 21
6.77997
 31
0.0
  0
LINE
  8
0
 62
     0
 10
301.874
 20
6.77997
 30
0.0
 11
301.387
 21
7.02938
 31
0.0
  0
LINE
  8
0
 62
     0
 10
301.387
 20
7.02938
 30
0.0
 11
300.846
 21
7.1162
 31
0.0
  0
LINE
  8
0
 62
     0
 10
300.846
 20
7.1162
 30
0.0
 11
300.305
 21
7.02938
 31
0.0
  0
LINE
  8
0
 62
     0
 10
241.155
 20
7.02938
 30
0.0
 11
240.667
 21
6.77997
 31
0.0
  0
LINE
  8
0
 62
     0
 10
240.667
 20
6.77997
 30
0.0
 11
240.28
 21
6.3941
 31
0.0
  0
LINE
  8
0
 62
     0
 10
240.28
 20
6.3941
 30
0.0
 11
240.031
 21
5.90628
 31
0.0
  0
LINE
  8
0
 62
     0
 10
240.031
 20
5.90628
 30
0.0
 11
239.945
 21
5.36607
 31
0.0
  0
LINE
  8
0
 62
     0
 10
239.945
 20
5.36607
 30
0.0
 11
240.031
 21
4.82452
 31
0.0
  0
LINE
  8
0
 62
     0
 10
240.031
 20
4.82452
 30
0.0
 11
240.28
 21
4.3367
 31
0.0
  0
LINE
  8
0
 62
     0
 10
240.28
 20
4.3367
 30
0.0
 11
240.667
 21
3.94945
 31
0.0
  0
LINE
  8
0
 62
     0
 10
240.667
 20
3.94945
 30
0.0
 11
241.155
 21
3.70004
 31
0.0
  0
LINE
  8
0
 62
     0
 10
241.155
 20
3.70004
 30
0.0
 11
241.695
 21
3.61597
 31
0.0
  0
LINE
  8
0
 62
     0
 10
241.695
 20
3.61597
 30
0.0
 11
242.237
 21
3.70004
 31
0.0
  0
LINE
  8
0
 62
     0
 10
242.237
 20
3.70004
 30
0.0
 11
242.725
 21
3.94945
 31
0.0
  0
LINE
  8
0
 62
     0
 10
242.725
 20
3.94945
 30
0.0
 11
243.112
 21
4.3367
 31
0.0
  0
LINE
  8
0
 62
     0
 10
243.112
 20
4.3367
 30
0.0
 11
243.36
 21
4.82452
 31
0.0
  0
LINE
  8
0
 62
     0
 10
243.36
 20
4.82452
 30
0.0
 11
243.446
 21
5.36607
 31
0.0
  0
LINE
  8
0
 62
     0
 10
243.446
 20
5.36607
 30
0.0
 11
243.36
 21
5.90628
 31
0.0
  0
LINE
  8
0
 62
     0
 10
243.36
 20
5.90628
 30
0.0
 11
243.112
 21
6.3941
 31
0.0
  0
LINE
  8
0
 62
     0
 10
243.112
 20
6.3941
 30
0.0
 11
242.725
 21
6.77997
 31
0.0
  0
LINE
  8
0
 62
     0
 10
242.725
 20
6.77997
 30
0.0
 11
242.237
 21
7.02938
 31
0.0
  0
LINE
  8
0
 62
     0
 10
242.237
 20
7.02938
 30
0.0
 11
241.695
 21
7.1162
 31
0.0
  0
LINE
  8
0
 62
     0
 10
241.695
 20
7.1162
 30
0.0
 11
241.155
 21
7.02938
 31
0.0
  0
LINE
  8
0
 62
     0
 10
182.004
 20
7.02938
 30
0.0
 11
181.517
 21
6.77997
 31
0.0
  0
LINE
  8
0
 62
     0
 10
181.517
 20
6.77997
 30
0.0
 11
181.13
 21
6.3941
 31
0.0
  0
LINE
  8
0
 62
     0
 10
181.13
 20
6.3941
 30
0.0
 11
180.881
 21
5.90628
 31
0.0
  0
LINE
  8
0
 62
     0
 10
180.881
 20
5.90628
 30
0.0
 11
180.796
 21
5.36607
 31
0.0
  0
LINE
  8
0
 62
     0
 10
180.796
 20
5.36607
 30
0.0
 11
180.881
 21
4.82452
 31
0.0
  0
LINE
  8
0
 62
     0
 10
180.881
 20
4.82452
 30
0.0
 11
181.13
 21
4.3367
 31
0.0
  0
LINE
  8
0
 62
     0
 10
181.13
 20
4.3367
 30
0.0
 11
181.517
 21
3.94945
 31
0.0
  0
LINE
  8
0
 62
     0
 10
181.517
 20
3.94945
 30
0.0
 11
182.004
 21
3.70004
 31
0.0
  0
LINE
  8
0
 62
     0
 10
182.004
 20
3.70004
 30
0.0
 11
182.546
 21
3.61597
 31
0.0
  0
LINE
  8
0
 62
     0
 10
182.546
 20
3.61597
 30
0.0
 11
183.086
 21
3.70004
 31
0.0
  0
LINE
  8
0
 62
     0
 10
183.086
 20
3.70004
 30
0.0
 11
183.574
 21
3.94945
 31
0.0
  0
LINE
  8
0
 62
     0
 10
183.574
 20
3.94945
 30
0.0
 11
183.961
 21
4.3367
 31
0.0
  0
LINE
  8
0
 62
     0
 10
183.961
 20
4.3367
 30
0.0
 11
184.209
 21
4.82452
 31
0.0
  0
LINE
  8
0
 62
     0
 10
184.209
 20
4.82452
 30
0.0
 11
184.296
 21
5.36607
 31
0.0
  0
LINE
  8
0
 62
     0
 10
184.296
 20
5.36607
 30
0.0
 11
184.209
 21
5.90628
 31
0.0
  0
LINE
  8
0
 62
     0
 10
184.209
 20
5.90628
 30
0.0
 11
183.961
 21
6.3941
 31
0.0
  0
LINE
  8
0
 62
     0
 10
183.961
 20
6.3941
 30
0.0
 11
183.574
 21
6.77997
 31
0.0
  0
LINE
  8
0
 62
     0
 10
183.574
 20
6.77997
 30
0.0
 11
183.086
 21
7.02938
 31
0.0
  0
LINE
  8
0
 62
     0
 10
183.086
 20
7.02938
 30
0.0
 11
182.546
 21
7.1162
 31
0.0
  0
LINE
  8
0
 62
     0
 10
182.546
 20
7.1162
 30
0.0
 11
182.004
 21
7.02938
 31
0.0
  0
LINE
  8
0
 62
     0
 10
122.855
 20
7.02938
 30
0.0
 11
122.367
 21
6.77997
 31
0.0
  0
LINE
  8
0
 62
     0
 10
122.367
 20
6.77997
 30
0.0
 11
121.98
 21
6.3941
 31
0.0
  0
LINE
  8
0
 62
     0
 10
121.98
 20
6.3941
 30
0.0
 11
121.732
 21
5.90628
 31
0.0
  0
LINE
  8
0
 62
     0
 10
121.732
 20
5.90628
 30
0.0
 11
121.645
 21
5.36607
 31
0.0
  0
LINE
  8
0
 62
     0
 10
121.645
 20
5.36607
 30
0.0
 11
121.732
 21
4.82452
 31
0.0
  0
LINE
  8
0
 62
     0
 10
121.732
 20
4.82452
 30
0.0
 11
121.98
 21
4.3367
 31
0.0
  0
LINE
  8
0
 62
     0
 10
121.98
 20
4.3367
 30
0.0
 11
122.367
 21
3.94945
 31
0.0
  0
LINE
  8
0
 62
     0
 10
122.367
 20
3.94945
 30
0.0
 11
122.855
 21
3.70004
 31
0.0
  0
LINE
  8
0
 62
     0
 10
122.855
 20
3.70004
 30
0.0
 11
123.395
 21
3.61597
 31
0.0
  0
LINE
  8
0
 62
     0
 10
123.395
 20
3.61597
 30
0.0
 11
123.936
 21
3.70004
 31
0.0
  0
LINE
  8
0
 62
     0
 10
123.936
 20
3.70004
 30
0.0
 11
124.424
 21
3.94945
 31
0.0
  0
LINE
  8
0
 62
     0
 10
124.424
 20
3.94945
 30
0.0
 11
124.812
 21
4.3367
 31
0.0
  0
LINE
  8
0
 62
     0
 10
124.812
 20
4.3367
 30
0.0
 11
125.06
 21
4.82452
 31
0.0
  0
LINE
  8
0
 62
     0
 10
125.06
 20
4.82452
 30
0.0
 11
125.145
 21
5.36607
 31
0.0
  0
LINE
  8
0
 62
     0
 10
125.145
 20
5.36607
 30
0.0
 11
125.06
 21
5.90628
 31
0.0
  0
LINE
  8
0
 62
     0
 10
125.06
 20
5.90628
 30
0.0
 11
124.812
 21
6.3941
 31
0.0
  0
LINE
  8
0
 62
     0
 10
124.812
 20
6.3941
 30
0.0
 11
124.424
 21
6.77997
 31
0.0
  0
LINE
  8
0
 62
     0
 10
124.424
 20
6.77997
 30
0.0
 11
123.936
 21
7.02938
 31
0.0
  0
LINE
  8
0
 62
     0
 10
123.936
 20
7.02938
 30
0.0
 11
123.395
 21
7.1162
 31
0.0
  0
LINE
  8
0
 62
     0
 10
123.395
 20
7.1162
 30
0.0
 11
122.855
 21
7.02938
 31
0.0
  0
LINE
  8
0
 62
     0
 10
63.7039
 20
7.02938
 30
0.0
 11
63.216
 21
6.77997
 31
0.0
  0
LINE
  8
0
 62
     0
 10
63.216
 20
6.77997
 30
0.0
 11
62.829
 21
6.3941
 31
0.0
  0
LINE
  8
0
 62
     0
 10
62.829
 20
6.3941
 30
0.0
 11
62.581
 21
5.90628
 31
0.0
  0
LINE
  8
0
 62
     0
 10
62.581
 20
5.90628
 30
0.0
 11
62.4953
 21
5.36607
 31
0.0
  0
LINE
  8
0
 62
     0
 10
62.4953
 20
5.36607
 30
0.0
 11
62.581
 21
4.82452
 31
0.0
  0
LINE
  8
0
 62
     0
 10
62.581
 20
4.82452
 30
0.0
 11
62.829
 21
4.3367
 31
0.0
  0
LINE
  8
0
 62
     0
 10
62.829
 20
4.3367
 30
0.0
 11
63.216
 21
3.94945
 31
0.0
  0
LINE
  8
0
 62
     0
 10
63.216
 20
3.94945
 30
0.0
 11
63.7039
 21
3.70004
 31
0.0
  0
LINE
  8
0
 62
     0
 10
63.7039
 20
3.70004
 30
0.0
 11
64.2454
 21
3.61597
 31
0.0
  0
LINE
  8
0
 62
     0
 10
64.2454
 20
3.61597
 30
0.0
 11
64.7859
 21
3.70004
 31
0.0
  0
LINE
  8
0
 62
     0
 10
64.7859
 20
3.70004
 30
0.0
 11
65.2734
 21
3.94945
 31
0.0
  0
LINE
  8
0
 62
     0
 10
65.2734
 20
3.94945
 30
0.0
 11
65.6608
 21
4.3367
 31
0.0
  0
LINE
  8
0
 62
     0
 10
65.6608
 20
4.3367
 30
0.0
 11
65.9088
 21
4.82452
 31
0.0
  0
LINE
  8
0
 62
     0
 10
65.9088
 20
4.82452
 30
0.0
 11
65.9956
 21
5.36607
 31
0.0
  0
LINE
  8
0
 62
     0
 10
65.9956
 20
5.36607
 30
0.0
 11
65.9088
 21
5.90628
 31
0.0
  0
LINE
  8
0
 62
     0
 10
65.9088
 20
5.90628
 30
0.0
 11
65.6608
 21
6.3941
 31
0.0
  0
LINE
  8
0
 62
     0
 10
65.6608
 20
6.3941
 30
0.0
 11
65.2734
 21
6.77997
 31
0.0
  0
LINE
  8
0
 62
     0
 10
65.2734
 20
6.77997
 30
0.0
 11
64.7859
 21
7.02938
 31
0.0
  0
LINE
  8
0
 62
     0
 10
64.7859
 20
7.02938
 30
0.0
 11
64.2454
 21
7.1162
 31
0.0
  0
LINE
  8
0
 62
     0
 10
64.2454
 20
7.1162
 30
0.0
 11
63.7039
 21
7.02938
 31
0.0
  0
LINE
  8
0
 62
     0
 10
4.55443
 20
7.02938
 30
0.0
 11
4.06658
 21
6.77997
 31
0.0
  0
LINE
  8
0
 62
     0
 10
4.06658
 20
6.77997
 30
0.0
 11
3.67937
 21
6.3941
 31
0.0
  0
LINE
  8
0
 62
     0
 10
3.67937
 20
6.3941
 30
0.0
 11
3.42994
 21
5.90628
 31
0.0
  0
LINE
  8
0
 62
     0
 10
3.42994
 20
5.90628
 30
0.0
 11
3.34588
 21
5.36607
 31
0.0
  0
LINE
  8
0
 62
     0
 10
3.34588
 20
5.36607
 30
0.0
 11
3.42994
 21
4.82452
 31
0.0
  0
LINE
  8
0
 62
     0
 10
3.42994
 20
4.82452
 30
0.0
 11
3.67937
 21
4.3367
 31
0.0
  0
LINE
  8
0
 62
     0
 10
3.67937
 20
4.3367
 30
0.0
 11
4.06658
 21
3.94945
 31
0.0
  0
LINE
  8
0
 62
     0
 10
4.06658
 20
3.94945
 30
0.0
 11
4.55443
 21
3.70004
 31
0.0
  0
LINE
  8
0
 62
     0
 10
4.55443
 20
3.70004
 30
0.0
 11
5.09598
 21
3.61597
 31
0.0
  0
LINE
  8
0
 62
     0
 10
5.09598
 20
3.61597
 30
0.0
 11
5.63619
 21
3.70004
 31
0.0
  0
LINE
  8
0
 62
     0
 10
5.63619
 20
3.70004
 30
0.0
 11
6.12401
 21
3.94945
 31
0.0
  0
LINE
  8
0
 62
     0
 10
6.12401
 20
3.94945
 30
0.0
 11
6.50984
 21
4.3367
 31
0.0
  0
LINE
  8
0
 62
     0
 10
6.50984
 20
4.3367
 30
0.0
 11
6.75929
 21
4.82452
 31
0.0
  0
LINE
  8
0
 62
     0
 10
6.75929
 20
4.82452
 30
0.0
 11
6.84611
 21
5.36607
 31
0.0
  0
LINE
  8
0
 62
     0
 10
6.84611
 20
5.36607
 30
0.0
 11
6.75929
 21
5.90628
 31
0.0
  0
LINE
  8
0
 62
     0
 10
6.75929
 20
5.90628
 30
0.0
 11
6.50984
 21
6.3941
 31
0.0
  0
LINE
  8
0
 62
     0
 10
6.50984
 20
6.3941
 30
0.0
 11
6.12401
 21
6.77997
 31
0.0
  0
LINE
  8
0
 62
     0
 10
6.12401
 20
6.77997
 30
0.0
 11
5.63619
 21
7.02938
 31
0.0
  0
LINE
  8
0
 62
     0
 10
5.63619
 20
7.02938
 30
0.0
 11
5.09598
 21
7.1162
 31
0.0
  0
LINE
  8
0
 62
     0
 10
5.09598
 20
7.1162
 30
0.0
 11
4.55443
 21
7.02938
 31
0.0
  0
LINE
  8
0
 62
     0
 10
10.0941
 20
105.617
 30
0.0
 11
10.0941
 21
29.4142
 31
0.0
  0
LINE
  8
0
 62
     0
 10
10.0941
 20
29.4142
 30
0.0
 11
38.669
 21
29.4142
 31
0.0
  0
LINE
  8
0
 62
     0
 10
38.669
 20
29.4142
 30
0.0
 11
38.669
 21
10.3656
 31
0.0
  0
LINE
  8
0
 62
     0
 10
38.669
 20
10.3656
 30
0.0
 11
267.272
 21
10.3656
 31
0.0
  0
LINE
  8
0
 62
     0
 10
267.272
 20
10.3656
 30
0.0
 11
267.272
 21
29.4142
 31
0.0
  0
LINE
  8
0
 62
     0
 10
267.272
 20
29.4142
 30
0.0
 11
295.847
 21
29.4142
 31
0.0
  0
LINE
  8
0
 62
     0
 10
295.847
 20
29.4142
 30
0.0
 11
295.847
 21
105.617
 31
0.0
  0
LINE
  8
0
 62
     0
 10
295.847
 20
105.617
 30
0.0
 11
10.0941
 21
105.617
 31
0.0
  0
LINE
  8
0
 62
     0
 10
300.305
 20
59.6554
 30
0.0
 11
299.817
 21
59.4071
 31
0.0
  0
LINE
  8
0
 62
     0
 10
299.817
 20
59.4071
 30
0.0
 11
299.431
 21
59.0201
 31
0.0
  0
LINE
  8
0
 62
     0
 10
299.431
 20
59.0201
 30
0.0
 11
299.182
 21
58.5322
 31
0.0
  0
LINE
  8
0
 62
     0
 10
299.182
 20
58.5322
 30
0.0
 11
299.096
 21
57.9907
 31
0.0
  0
LINE
  8
0
 62
     0
 10
299.096
 20
57.9907
 30
0.0
 11
299.182
 21
57.4492
 31
0.0
  0
LINE
  8
0
 62
     0
 10
299.182
 20
57.4492
 30
0.0
 11
299.431
 21
56.9613
 31
0.0
  0
LINE
  8
0
 62
     0
 10
299.431
 20
56.9613
 30
0.0
 11
299.817
 21
56.5739
 31
0.0
  0
LINE
  8
0
 62
     0
 10
299.817
 20
56.5739
 30
0.0
 11
300.305
 21
56.3273
 31
0.0
  0
LINE
  8
0
 62
     0
 10
300.305
 20
56.3273
 30
0.0
 11
300.846
 21
56.2405
 31
0.0
  0
LINE
  8
0
 62
     0
 10
300.846
 20
56.2405
 30
0.0
 11
301.387
 21
56.3273
 31
0.0
  0
LINE
  8
0
 62
     0
 10
301.387
 20
56.3273
 30
0.0
 11
301.874
 21
56.5739
 31
0.0
  0
LINE
  8
0
 62
     0
 10
301.874
 20
56.5739
 30
0.0
 11
302.262
 21
56.9613
 31
0.0
  0
LINE
  8
0
 62
     0
 10
302.262
 20
56.9613
 30
0.0
 11
302.511
 21
57.4492
 31
0.0
  0
LINE
  8
0
 62
     0
 10
302.511
 20
57.4492
 30
0.0
 11
302.597
 21
57.9907
 31
0.0
  0
LINE
  8
0
 62
     0
 10
302.597
 20
57.9907
 30
0.0
 11
302.511
 21
58.5322
 31
0.0
  0
LINE
  8
0
 62
     0
 10
302.511
 20
58.5322
 30
0.0
 11
302.262
 21
59.0201
 31
0.0
  0
LINE
  8
0
 62
     0
 10
302.262
 20
59.0201
 30
0.0
 11
301.874
 21
59.4071
 31
0.0
  0
LINE
  8
0
 62
     0
 10
301.874
 20
59.4071
 30
0.0
 11
301.387
 21
59.6554
 31
0.0
  0
LINE
  8
0
 62
     0
 10
301.387
 20
59.6554
 30
0.0
 11
300.846
 21
59.7408
 31
0.0
  0
LINE
  8
0
 62
     0
 10
300.846
 20
59.7408
 30
0.0
 11
300.305
 21
59.6554
 31
0.0
  0
LINE
  8
0
 62
     0
 10
4.55443
 20
59.6554
 30
0.0
 11
4.06658
 21
59.4071
 31
0.0
  0
LINE
  8
0
 62
     0
 10
4.06658
 20
59.4071
 30
0.0
 11
3.67937
 21
59.0201
 31
0.0
  0
LINE
  8
0
 62
     0
 10
3.67937
 20
59.0201
 30
0.0
 11
3.42994
 21
58.5322
 31
0.0
  0
LINE
  8
0
 62
     0
 10
3.42994
 20
58.5322
 30
0.0
 11
3.34588
 21
57.9907
 31
0.0
  0
LINE
  8
0
 62
     0
 10
3.34588
 20
57.9907
 30
0.0
 11
3.42994
 21
57.4492
 31
0.0
  0
LINE
  8
0
 62
     0
 10
3.42994
 20
57.4492
 30
0.0
 11
3.67937
 21
56.9613
 31
0.0
  0
LINE
  8
0
 62
     0
 10
3.67937
 20
56.9613
 30
0.0
 11
4.06658
 21
56.5739
 31
0.0
  0
LINE
  8
0
 62
     0
 10
4.06658
 20
56.5739
 30
0.0
 11
4.55443
 21
56.3273
 31
0.0
  0
LINE
  8
0
 62
     0
 10
4.55443
 20
56.3273
 30
0.0
 11
5.09598
 21
56.2405
 31
0.0
  0
LINE
  8
0
 62
     0
 10
5.09598
 20
56.2405
 30
0.0
 11
5.63619
 21
56.3273
 31
0.0
  0
LINE
  8
0
 62
     0
 10
5.63619
 20
56.3273
 30
0.0
 11
6.12401
 21
56.5739
 31
0.0
  0
LINE
  8
0
 62
     0
 10
6.12401
 20
56.5739
 30
0.0
 11
6.50984
 21
56.9613
 31
0.0
  0
LINE
  8
0
 62
     0
 10
6.50984
 20
56.9613
 30
0.0
 11
6.75929
 21
57.4492
 31
0.0
  0
LINE
  8
0
 62
     0
 10
6.75929
 20
57.4492
 30
0.0
 11
6.84611
 21
57.9907
 31
0.0
  0
LINE
  8
0
 62
     0
 10
6.84611
 20
57.9907
 30
0.0
 11
6.75929
 21
58.5322
 31
0.0
  0
LINE
  8
0
 62
     0
 10
6.75929
 20
58.5322
 30
0.0
 11
6.50984
 21
59.0201
 31
0.0
  0
LINE
  8
0
 62
     0
 10
6.50984
 20
59.0201
 30
0.0
 11
6.12401
 21
59.4071
 31
0.0
  0
LINE
  8
0
 62
     0
 10
6.12401
 20
59.4071
 30
0.0
 11
5.63619
 21
59.6554
 31
0.0
  0
LINE
  8
0
 62
     0
 10
5.63619
 20
59.6554
 30
0.0
 11
5.09598
 21
59.7408
 31
0.0
  0
LINE
  8
0
 62
     0
 10
5.09598
 20
59.7408
 30
0.0
 11
4.55443
 21
59.6554
 31
0.0
  0
LINE
  8
0
 62
     0
 10
63.7039
 20
112.281
 30
0.0
 11
63.216
 21
112.032
 31
0.0
  0
LINE
  8
0
 62
     0
 10
63.216
 20
112.032
 30
0.0
 11
62.829
 21
111.645
 31
0.0
  0
LINE
  8
0
 62
     0
 10
62.829
 20
111.645
 30
0.0
 11
62.581
 21
111.157
 31
0.0
  0
LINE
  8
0
 62
     0
 10
62.581
 20
111.157
 30
0.0
 11
62.4953
 21
110.615
 31
0.0
  0
LINE
  8
0
 62
     0
 10
62.4953
 20
110.615
 30
0.0
 11
62.581
 21
110.075
 31
0.0
  0
LINE
  8
0
 62
     0
 10
62.581
 20
110.075
 30
0.0
 11
62.829
 21
109.587
 31
0.0
  0
LINE
  8
0
 62
     0
 10
62.829
 20
109.587
 30
0.0
 11
63.216
 21
109.201
 31
0.0
  0
LINE
  8
0
 62
     0
 10
63.216
 20
109.201
 30
0.0
 11
63.7039
 21
108.952
 31
0.0
  0
LINE
  8
0
 62
     0
 10
63.7039
 20
108.952
 30
0.0
 11
64.2454
 21
108.865
 31
0.0
  0
LINE
  8
0
 62
     0
 10
64.2454
 20
108.865
 30
0.0
 11
64.7859
 21
108.952
 31
0.0
  0
LINE
  8
0
 62
     0
 10
64.7859
 20
108.952
 30
0.0
 11
65.2734
 21
109.201
 31
0.0
  0
LINE
  8
0
 62
     0
 10
65.2734
 20
109.201
 30
0.0
 11
65.6608
 21
109.587
 31
0.0
  0
LINE
  8
0
 62
     0
 10
65.6608
 20
109.587
 30
0.0
 11
65.9088
 21
110.075
 31
0.0
  0
LINE
  8
0
 62
     0
 10
65.9088
 20
110.075
 30
0.0
 11
65.9956
 21
110.615
 31
0.0
  0
LINE
  8
0
 62
     0
 10
65.9956
 20
110.615
 30
0.0
 11
65.9088
 21
111.157
 31
0.0
  0
LINE
  8
0
 62
     0
 10
65.9088
 20
111.157
 30
0.0
 11
65.6608
 21
111.645
 31
0.0
  0
LINE
  8
0
 62
     0
 10
65.6608
 20
111.645
 30
0.0
 11
65.2734
 21
112.032
 31
0.0
  0
LINE
  8
0
 62
     0
 10
65.2734
 20
112.032
 30
0.0
 11
64.7859
 21
112.281
 31
0.0
  0
LINE
  8
0
 62
     0
 10
64.7859
 20
112.281
 30
0.0
 11
64.2454
 21
112.365
 31
0.0
  0
LINE
  8
0
 62
     0
 10
64.2454
 20
112.365
 30
0.0
 11
63.7039
 21
112.281
 31
0.0
  0
LINE
  8
0
 62
     0
 10
122.855
 20
112.281
 30
0.0
 11
122.367
 21
112.032
 31
0.0
  0
LINE
  8
0
 62
     0
 10
122.367
 20
112.032
 30
0.0
 11
121.98
 21
111.645
 31
0.0
  0
LINE
  8
0
 62
     0
 10
121.98
 20
111.645
 30
0.0
 11
121.732
 21
111.157
 31
0.0
  0
LINE
  8
0
 62
     0
 10
121.732
 20
111.157
 30
0.0
 11
121.645
 21
110.615
 31
0.0
  0
LINE
  8
0
 62
     0
 10
121.645
 20
110.615
 30
0.0
 11
121.732
 21
110.075
 31
0.0
  0
LINE
  8
0
 62
     0
 10
121.732
 20
110.075
 30
0.0
 11
121.98
 21
109.587
 31
0.0
  0
LINE
  8
0
 62
     0
 10
121.98
 20
109.587
 30
0.0
 11
122.367
 21
109.201
 31
0.0
  0
LINE
  8
0
 62
     0
 10
122.367
 20
109.201
 30
0.0
 11
122.855
 21
108.952
 31
0.0
  0
LINE
  8
0
 62
     0
 10
122.855
 20
108.952
 30
0.0
 11
123.395
 21
108.865
 31
0.0
  0
LINE
  8
0
 62
     0
 10
123.395
 20
108.865
 30
0.0
 11
123.936
 21
108.952
 31
0.0
  0
LINE
  8
0
 62
     0
 10
123.936
 20
108.952
 30
0.0
 11
124.424
 21
109.201
 31
0.0
  0
LINE
  8
0
 62
     0
 10
124.424
 20
109.201
 30
0.0
 11
124.812
 21
109.587
 31
0.0
  0
LINE
  8
0
 62
     0
 10
124.812
 20
109.587
 30
0.0
 11
125.06
 21
110.075
 31
0.0
  0
LINE
  8
0
 62
     0
 10
125.06
 20
110.075
 30
0.0
 11
125.145
 21
110.615
 31
0.0
  0
LINE
  8
0
 62
     0
 10
125.145
 20
110.615
 30
0.0
 11
125.06
 21
111.157
 31
0.0
  0
LINE
  8
0
 62
     0
 10
125.06
 20
111.157
 30
0.0
 11
124.812
 21
111.645
 31
0.0
  0
LINE
  8
0
 62
     0
 10
124.812
 20
111.645
 30
0.0
 11
124.424
 21
112.032
 31
0.0
  0
LINE
  8
0
 62
     0
 10
124.424
 20
112.032
 30
0.0
 11
123.936
 21
112.281
 31
0.0
  0
LINE
  8
0
 62
     0
 10
123.936
 20
112.281
 30
0.0
 11
123.395
 21
112.365
 31
0.0
  0
LINE
  8
0
 62
     0
 10
123.395
 20
112.365
 30
0.0
 11
122.855
 21
112.281
 31
0.0
  0
LINE
  8
0
 62
     0
 10
182.004
 20
112.281
 30
0.0
 11
181.517
 21
112.032
 31
0.0
  0
LINE
  8
0
 62
     0
 10
181.517
 20
112.032
 30
0.0
 11
181.13
 21
111.645
 31
0.0
  0
LINE
  8
0
 62
     0
 10
181.13
 20
111.645
 30
0.0
 11
180.881
 21
111.157
 31
0.0
  0
LINE
  8
0
 62
     0
 10
180.881
 20
111.157
 30
0.0
 11
180.796
 21
110.615
 31
0.0
  0
LINE
  8
0
 62
     0
 10
180.796
 20
110.615
 30
0.0
 11
180.881
 21
110.075
 31
0.0
  0
LINE
  8
0
 62
     0
 10
180.881
 20
110.075
 30
0.0
 11
181.13
 21
109.587
 31
0.0
  0
LINE
  8
0
 62
     0
 10
181.13
 20
109.587
 30
0.0
 11
181.517
 21
109.201
 31
0.0
  0
LINE
  8
0
 62
     0
 10
181.517
 20
109.201
 30
0.0
 11
182.004
 21
108.952
 31
0.0
  0
LINE
  8
0
 62
     0
 10
182.004
 20
108.952
 30
0.0
 11
182.546
 21
108.865
 31
0.0
  0
LINE
  8
0
 62
     0
 10
182.546
 20
108.865
 30
0.0
 11
183.086
 21
108.952
 31
0.0
  0
LINE
  8
0
 62
     0
 10
183.086
 20
108.952
 30
0.0
 11
183.574
 21
109.201
 31
0.0
  0
LINE
  8
0
 62
     0
 10
183.574
 20
109.201
 30
0.0
 11
183.961
 21
109.587
 31
0.0
  0
LINE
  8
0
 62
     0
 10
183.961
 20
109.587
 30
0.0
 11
184.209
 21
110.075
 31
0.0
  0
LINE
  8
0
 62
     0
 10
184.209
 20
110.075
 30
0.0
 11
184.296
 21
110.615
 31
0.0
  0
LINE
  8
0
 62
     0
 10
184.296
 20
110.615
 30
0.0
 11
184.209
 21
111.157
 31
0.0
  0
LINE
  8
0
 62
     0
 10
184.209
 20
111.157
 30
0.0
 11
183.961
 21
111.645
 31
0.0
  0
LINE
  8
0
 62
     0
 10
183.961
 20
111.645
 30
0.0
 11
183.574
 21
112.032
 31
0.0
  0
LINE
  8
0
 62
     0
 10
183.574
 20
112.032
 30
0.0
 11
183.086
 21
112.281
 31
0.0
  0
LINE
  8
0
 62
     0
 10
183.086
 20
112.281
 30
0.0
 11
182.546
 21
112.365
 31
0.0
  0
LINE
  8
0
 62
     0
 10
182.546
 20
112.365
 30
0.0
 11
182.004
 21
112.281
 31
0.0
  0
LINE
  8
0
 62
     0
 10
241.155
 20
112.281
 30
0.0
 11
240.667
 21
112.032
 31
0.0
  0
LINE
  8
0
 62
     0
 10
240.667
 20
112.032
 30
0.0
 11
240.28
 21
111.645
 31
0.0
  0
LINE
  8
0
 62
     0
 10
240.28
 20
111.645
 30
0.0
 11
240.031
 21
111.157
 31
0.0
  0
LINE
  8
0
 62
     0
 10
240.031
 20
111.157
 30
0.0
 11
239.945
 21
110.615
 31
0.0
  0
LINE
  8
0
 62
     0
 10
239.945
 20
110.615
 30
0.0
 11
240.031
 21
110.075
 31
0.0
  0
LINE
  8
0
 62
     0
 10
240.031
 20
110.075
 30
0.0
 11
240.28
 21
109.587
 31
0.0
  0
LINE
  8
0
 62
     0
 10
240.28
 20
109.587
 30
0.0
 11
240.667
 21
109.201
 31
0.0
  0
LINE
  8
0
 62
     0
 10
240.667
 20
109.201
 30
0.0
 11
241.155
 21
108.952
 31
0.0
  0
LINE
  8
0
 62
     0
 10
241.155
 20
108.952
 30
0.0
 11
241.695
 21
108.865
 31
0.0
  0
LINE
  8
0
 62
     0
 10
241.695
 20
108.865
 30
0.0
 11
242.237
 21
108.952
 31
0.0
  0
LINE
  8
0
 62
     0
 10
242.237
 20
108.952
 30
0.0
 11
242.725
 21
109.201
 31
0.0
  0
LINE
  8
0
 62
     0
 10
242.725
 20
109.201
 30
0.0
 11
243.112
 21
109.587
 31
0.0
  0
LINE
  8
0
 62
     0
 10
243.112
 20
109.587
 30
0.0
 11
243.36
 21
110.075
 31
0.0
  0
LINE
  8
0
 62
     0
 10
243.36
 20
110.075
 30
0.0
 11
243.446
 21
110.615
 31
0.0
  0
LINE
  8
0
 62
     0
 10
243.446
 20
110.615
 30
0.0
 11
243.36
 21
111.157
 31
0.0
  0
LINE
  8
0
 62
     0
 10
243.36
 20
111.157
 30
0.0
 11
243.112
 21
111.645
 31
0.0
  0
LINE
  8
0
 62
     0
 10
243.112
 20
111.645
 30
0.0
 11
242.725
 21
112.032
 31
0.0
  0
LINE
  8
0
 62
     0
 10
242.725
 20
112.032
 30
0.0
 11
242.237
 21
112.281
 31
0.0
  0
LINE
  8
0
 62
     0
 10
242.237
 20
112.281
 30
0.0
 11
241.695
 21
112.365
 31
0.0
  0
LINE
  8
0
 62
     0
 10
241.695
 20
112.365
 30
0.0
 11
241.155
 21
112.281
 31
0.0
  0
LINE
  8
0
 62
     0
 10
300.305
 20
112.281
 30
0.0
 11
299.817
 21
112.032
 31
0.0
  0
LINE
  8
0
 62
     0
 10
299.817
 20
112.032
 30
0.0
 11
299.431
 21
111.645
 31
0.0
  0
LINE
  8
0
 62
     0
 10
299.431
 20
111.645
 30
0.0
 11
299.182
 21
111.157
 31
0.0
  0
LINE
  8
0
 62
     0
 10
299.182
 20
111.157
 30
0.0
 11
299.096
 21
110.615
 31
0.0
  0
LINE
  8
0
 62
     0
 10
299.096
 20
110.615
 30
0.0
 11
299.182
 21
110.075
 31
0.0
  0
LINE
  8
0
 62
     0
 10
299.182
 20
110.075
 30
0.0
 11
299.431
 21
109.587
 31
0.0
  0
LINE
  8
0
 62
     0
 10
299.431
 20
109.587
 30
0.0
 11
299.817
 21
109.201
 31
0.0
  0
LINE
  8
0
 62
     0
 10
299.817
 20
109.201
 30
0.0
 11
300.305
 21
108.952
 31
0.0
  0
LINE
  8
0
 62
     0
 10
300.305
 20
108.952
 30
0.0
 11
300.846
 21
108.865
 31
0.0
  0
LINE
  8
0
 62
     0
 10
300.846
 20
108.865
 30
0.0
 11
301.387
 21
108.952
 31
0.0
  0
LINE
  8
0
 62
     0
 10
301.387
 20
108.952
 30
0.0
 11
301.874
 21
109.201
 31
0.0
  0
LINE
  8
0
 62
     0
 10
301.874
 20
109.201
 30
0.0
 11
302.262
 21
109.587
 31
0.0
  0
LINE
  8
0
 62
     0
 10
302.262
 20
109.587
 30
0.0
 11
302.511
 21
110.075
 31
0.0
  0
LINE
  8
0
 62
     0
 10
302.511
 20
110.075
 30
0.0
 11
302.597
 21
110.615
 31
0.0
  0
LINE
  8
0
 62
     0
 10
302.597
 20
110.615
 30
0.0
 11
302.511
 21
111.157
 31
0.0
  0
LINE
  8
0
 62
     0
 10
302.511
 20
111.157
 30
0.0
 11
302.262
 21
111.645
 31
0.0
  0
LINE
  8
0
 62
     0
 10
302.262
 20
111.645
 30
0.0
 11
301.874
 21
112.032
 31
0.0
  0
LINE
  8
0
 62
     0
 10
301.874
 20
112.032
 30
0.0
 11
301.387
 21
112.281
 31
0.0
  0
LINE
  8
0
 62
     0
 10
301.387
 20
112.281
 30
0.0
 11
300.846
 21
112.365
 31
0.0
  0
LINE
  8
0
 62
     0
 10
300.846
 20
112.365
 30
0.0
 11
300.305
 21
112.281
 31
0.0
  0
LINE
  8
0
 62
     0
 10
4.55443
 20
112.281
 30
0.0
 11
4.06658
 21
112.032
 31
0.0
  0
LINE
  8
0
 62
     0
 10
4.06658
 20
112.032
 30
0.0
 11
3.67937
 21
111.645
 31
0.0
  0
LINE
  8
0
 62
     0
 10
3.67937
 20
111.645
 30
0.0
 11
3.42994
 21
111.157
 31
0.0
  0
LINE
  8
0
 62
     0
 10
3.42994
 20
111.157
 30
0.0
 11
3.34588
 21
110.615
 31
0.0
  0
LINE
  8
0
 62
     0
 10
3.34588
 20
110.615
 30
0.0
 11
3.42994
 21
110.075
 31
0.0
  0
LINE
  8
0
 62
     0
 10
3.42994
 20
110.075
 30
0.0
 11
3.67937
 21
109.587
 31
0.0
  0
LINE
  8
0
 62
     0
 10
3.67937
 20
109.587
 30
0.0
 11
4.06658
 21
109.201
 31
0.0
  0
LINE
  8
0
 62
     0
 10
4.06658
 20
109.201
 30
0.0
 11
4.55443
 21
108.952
 31
0.0
  0
LINE
  8
0
 62
     0
 10
4.55443
 20
108.952
 30
0.0
 11
5.09598
 21
108.865
 31
0.0
  0
LINE
  8
0
 62
     0
 10
5.09598
 20
108.865
 30
0.0
 11
5.63619
 21
108.952
 31
0.0
  0
LINE
  8
0
 62
     0
 10
5.63619
 20
108.952
 30
0.0
 11
6.12401
 21
109.201
 31
0.0
  0
LINE
  8
0
 62
     0
 10
6.12401
 20
109.201
 30
0.0
 11
6.50984
 21
109.587
 31
0.0
  0
LINE
  8
0
 62
     0
 10
6.50984
 20
109.587
 30
0.0
 11
6.75929
 21
110.075
 31
0.0
  0
LINE
  8
0
 62
     0
 10
6.75929
 20
110.075
 30
0.0
 11
6.84611
 21
110.615
 31
0.0
  0
LINE
  8
0
 62
     0
 10
6.84611
 20
110.615
 30
0.0
 11
6.75929
 21
111.157
 31
0.0
  0
LINE
  8
0
 62
     0
 10
6.75929
 20
111.157
 30
0.0
 11
6.50984
 21
111.645
 31
0.0
  0
LINE
  8
0
 62
     0
 10
6.50984
 20
111.645
 30
0.0
 11
6.12401
 21
112.032
 31
0.0
  0
LINE
  8
0
 62
     0
 10
6.12401
 20
112.032
 30
0.0
 11
5.63619
 21
112.281
 31
0.0
  0
LINE
  8
0
 62
     0
 10
5.63619
 20
112.281
 30
0.0
 11
5.09598
 21
112.365
 31
0.0
  0
LINE
  8
0
 62
     0
 10
5.09598
 20
112.365
 30
0.0
 11
4.55443
 21
112.281
 31
0.0
  0
ENDSEC
  0
EOF
